#N canvas 282 121 884 652 10;
#X obj 434 198 - 1;
#X obj 434 228 abs;
#X obj 290 149 hsl 128 15 0 1 0 0 empty empty empty -2 -8 0 10 -262144
-1 -1 6800 1;
#X obj 407 417 *~;
#X obj 284 418 *~;
#X obj 370 510 dac~;
#X obj 355 357 phasor~ 0;
#X obj 204 361 phasor~ 0;
#X connect 0 0 1 0;
#X connect 1 0 3 1;
#X connect 2 0 0 0;
#X connect 2 0 4 1;
#X connect 3 0 5 1;
#X connect 4 0 5 0;
#X connect 6 0 3 0;
#X connect 7 0 4 0;
